<svg width="28" height="28" viewBox="0 0 28 28" fill="none" xmlns="http://www.w3.org/2000/svg">
<path d="M23.4791 5.25H4.52081C3.31267 5.25 2.33331 6.22936 2.33331 7.4375V20.5625C2.33331 21.7706 3.31267 22.75 4.52081 22.75H23.4791C24.6873 22.75 25.6666 21.7706 25.6666 20.5625V7.4375C25.6666 6.22936 24.6873 5.25 23.4791 5.25ZM23.4791 7.4375V9.2971C22.4573 10.1292 20.8283 11.4231 17.3456 14.1502C16.5781 14.7539 15.0578 16.2042 14 16.1873C12.9423 16.2044 11.4215 14.7536 10.6543 14.1502C7.17225 11.4235 5.54279 10.1294 4.52081 9.2971V7.4375H23.4791ZM4.52081 20.5625V12.1041C5.56507 12.9358 7.04596 14.103 9.30314 15.8705C10.2992 16.6546 12.0436 18.3855 14 18.375C15.9467 18.3855 17.669 16.6797 18.6964 15.8709C20.9535 14.1034 22.4348 12.9359 23.4791 12.1041V20.5625H4.52081Z" fill="white"/>
</svg>
