<svg width="41" height="41" viewBox="0 0 41 41" fill="none" xmlns="http://www.w3.org/2000/svg">
<rect x="1.46423" y="2.92859" width="38.0714" height="33.6786" fill="white"/>
<path d="M36.9 0H4.1C1.845 0 0 1.845 0 4.1V36.9C0 39.155 1.845 41 4.1 41H36.9C39.155 41 41 39.155 41 36.9V4.1C41 1.845 39.155 0 36.9 0ZM12.3 34.85H6.15V16.4H12.3V34.85ZM9.225 12.915C7.175 12.915 5.535 11.275 5.535 9.225C5.535 7.175 7.175 5.535 9.225 5.535C11.275 5.535 12.915 7.175 12.915 9.225C12.915 11.275 11.275 12.915 9.225 12.915ZM34.85 34.85H28.7V23.985C28.7 22.3451 27.265 20.91 25.625 20.91C23.985 20.91 22.55 22.3451 22.55 23.985V34.85H16.4V16.4H22.55V18.86C23.575 17.22 25.83 15.99 27.675 15.99C31.57 15.99 34.85 19.27 34.85 23.165V34.85Z" fill="#4BA5D8"/>
</svg>
