<svg width="183" height="25" viewBox="0 0 183 25" fill="none" xmlns="http://www.w3.org/2000/svg">
<path d="M31.7185 10.1393H28.025V17.0279H31.7185C33.0893 17.0279 34.1554 16.7183 34.8789 16.1378C35.6024 15.5186 35.9451 14.6672 35.9451 13.5836C35.9451 12.5 35.6024 11.6099 34.8789 11.0294C34.1554 10.4102 33.0893 10.1393 31.7185 10.1393ZM117.888 22.1749C119.03 22.1749 120.058 21.904 120.972 21.4009C121.886 20.8978 122.609 20.1625 123.104 19.2337C123.637 18.305 123.866 17.2601 123.866 16.0991C123.866 14.9381 123.599 13.8932 123.104 12.9644C122.571 12.0356 121.886 11.3003 120.972 10.7972C120.058 10.2941 119.03 10.0232 117.888 10.0232C116.745 10.0232 115.717 10.2941 114.803 10.7972C113.89 11.3003 113.166 12.0356 112.671 12.9644C112.138 13.8932 111.909 14.9381 111.909 16.0991C111.909 17.2601 112.176 18.305 112.671 19.2337C113.204 20.1625 113.89 20.8978 114.803 21.4009C115.755 21.904 116.783 22.1749 117.888 22.1749ZM173.823 22.1749C174.966 22.1749 175.994 21.904 176.908 21.4009C177.821 20.8978 178.545 20.1625 179.04 19.2337C179.573 18.305 179.801 17.2601 179.801 16.0991C179.801 14.9381 179.535 13.8932 179.04 12.9644C178.507 12.0356 177.821 11.3003 176.908 10.7972C175.994 10.2941 174.966 10.0232 173.823 10.0232C172.681 10.0232 171.653 10.2941 170.739 10.7972C169.825 11.3003 169.102 12.0356 168.607 12.9644C168.074 13.8932 167.845 14.9381 167.845 16.0991C167.845 17.2601 168.112 18.305 168.607 19.2337C169.14 20.1625 169.825 20.8978 170.739 21.4009C171.653 21.904 172.681 22.1749 173.823 22.1749ZM67.892 24.7291H64.7697L57.3065 7.39164H60.7335L66.407 20.7817L72.1186 7.39164H75.279L67.892 24.7291ZM134.071 24.7291H130.91V7.39164H133.499L142.904 19.1176V7.39164H146.065V24.7291H143.476L134.071 13.0031V24.7291ZM55.593 10.1006H46.3021V14.5511H54.5268V17.1827H46.3021V22.0201H55.9357V24.7291H43.1417V7.39164H55.593V10.1006ZM80.7622 24.7291H77.6017V8.39783L80.7622 7.43034V7.39164V24.7291ZM104.827 24.7291H101.667V8.39783L104.827 7.43034V24.7291ZM28.025 24.7291H24.8645V7.39164H31.8708C33.3558 7.39164 34.6504 7.62384 35.7166 8.12694C36.8208 8.63003 37.6586 9.32663 38.2297 10.2554C38.8009 11.1842 39.1055 12.2678 39.1055 13.5449C39.1055 14.8607 38.8009 15.983 38.1536 16.9118C37.5443 17.8406 36.6305 18.5372 35.4501 19.0015L39.372 24.6904H35.9451L32.4419 19.6207C32.2896 19.6207 32.0612 19.6594 31.7946 19.6594H28.025V24.7291ZM160.763 24.7291H157.602V8.39783L160.763 7.43034V7.39164V24.7291ZM173.823 25C172.072 25 170.511 24.613 169.102 23.839C167.693 23.065 166.627 22.0201 165.827 20.6269C165.027 19.2724 164.647 17.7245 164.647 16.0604C164.647 14.3576 165.027 12.8483 165.827 11.4938C166.627 10.1393 167.731 9.05573 169.102 8.28173C170.473 7.50774 172.072 7.12074 173.823 7.12074C175.575 7.12074 177.136 7.50774 178.507 8.28173C179.878 9.05573 180.982 10.1006 181.782 11.4551C182.581 12.8096 182.962 14.3189 182.962 16.0217C182.962 17.7245 182.581 19.2337 181.782 20.5882C180.982 21.9427 179.878 22.9876 178.507 23.7616C177.136 24.613 175.575 25 173.823 25ZM117.888 25C116.136 25 114.575 24.613 113.166 23.839C111.757 23.065 110.691 22.0201 109.891 20.6269C109.092 19.2724 108.711 17.7245 108.711 16.0604C108.711 14.3576 109.092 12.8483 109.891 11.4938C110.691 10.1393 111.795 9.05573 113.166 8.28173C114.537 7.50774 116.136 7.12074 117.888 7.12074C119.639 7.12074 121.2 7.50774 122.609 8.28173C124.018 9.05573 125.084 10.1006 125.884 11.4551C126.684 12.8096 127.064 14.3189 127.064 16.0217C127.064 17.7245 126.684 19.2337 125.884 20.5882C125.084 21.9427 123.98 22.9876 122.609 23.7616C121.2 24.613 119.639 25 117.888 25ZM96.5643 9.98452L94.927 10.4876C94.6223 10.3715 94.3177 10.2554 94.0131 10.178C93.2135 9.94582 92.4139 9.82972 91.6523 9.82972C90.3958 9.82972 89.4819 10.0619 88.8727 10.4876C88.2634 10.9133 87.9588 11.4938 87.9588 12.1904C87.9588 12.6935 88.1492 13.0805 88.4919 13.3901C88.8346 13.6997 89.2915 13.9706 89.8246 14.1254C90.3577 14.3189 91.0811 14.5124 92.0331 14.7446C93.2896 15.0542 94.3558 15.3638 95.1554 15.6734C95.9551 15.983 96.6785 16.4861 97.2497 17.144C97.8208 17.8019 98.1255 18.692 98.1255 19.8142C98.1255 20.7817 97.8589 21.6331 97.3639 22.4071C96.8689 23.1811 96.0693 23.8003 95.0412 24.2647C94.0131 24.7291 92.7185 24.9613 91.2335 24.9613C89.9007 24.9613 88.6442 24.7678 87.4257 24.3808C86.2072 23.9938 85.2172 23.4907 84.5318 22.8715L85.6361 20.356C86.3215 20.9365 87.1972 21.3622 88.2253 21.7492C89.2534 22.0975 90.2434 22.291 91.2715 22.291C92.5281 22.291 93.48 22.0975 94.1273 21.6718C94.7366 21.2461 95.0793 20.7043 95.0793 20.0464C95.0793 19.5433 94.8889 19.1563 94.5462 18.808C94.2035 18.4598 93.7466 18.2276 93.2135 18.0341C92.6804 17.8406 91.9569 17.6471 91.005 17.4149C89.7104 17.1053 88.6442 16.7957 87.8446 16.4861C87.0449 16.1765 86.3595 15.6734 85.7884 15.0155C85.2172 14.3576 84.9126 13.4288 84.9126 12.3065C84.9126 11.339 85.1791 10.4876 85.6742 9.67492C86.1692 8.90093 86.9688 8.28173 87.9969 7.81734C89.025 7.35294 90.2815 7.12074 91.8046 7.12074C92.8327 7.12074 93.8608 7.23684 94.8889 7.50774C95.8789 7.77864 96.7547 8.16563 97.4781 8.63003C97.4781 8.63003 97.897 8.90093 98.4682 9.36533L97.0212 9.82972L96.8689 9.86842L96.5643 9.98452ZM6.24469 25H3.08427V3.09598L0 0H5.78777H13.0225C13.0605 0 13.0986 0 13.1367 0C15.231 0 17.3252 0.851393 18.8483 2.28328C21.3995 4.72136 22.2372 8.86223 20.676 12.1517C19.3052 15.0542 16.2971 17.0279 13.0986 17.0279C13.0605 17.0279 13.0225 17.0279 12.9844 17.0279H11.7278L8.56742 13.8545H12.9463C15.0406 13.8545 17.211 12.6161 18.0106 10.2941C18.7341 8.24303 18.0487 5.76625 16.3352 4.37307C15.4213 3.63777 14.279 3.21207 13.0986 3.21207C13.0605 3.21207 13.0605 3.21207 13.0225 3.21207H12.9844H6.24469V25Z" fill="white"/>
<path d="M151.853 24.9226C151.282 24.9226 150.825 24.7291 150.444 24.3421C150.063 23.9551 149.873 23.452 149.873 22.8715C149.873 22.2523 150.063 21.7492 150.444 21.4009C150.825 21.0139 151.32 20.8204 151.853 20.8204C152.386 20.8204 152.881 21.0139 153.262 21.4009C153.642 21.7879 153.833 22.291 153.833 22.8715C153.833 23.452 153.642 23.9551 153.262 24.3421C152.881 24.7291 152.386 24.9226 151.853 24.9226Z" fill="#FD7C34"/>
</svg>
