<svg width="30" height="30" viewBox="0 0 30 30" fill="none" xmlns="http://www.w3.org/2000/svg">
<path d="M26.25 5H8.75C8.41848 5 8.10054 5.1317 7.86612 5.36612C7.6317 5.60054 7.5 5.91848 7.5 6.25V10H13.75V7.5H21.25V20H26.25C26.5815 20 26.8995 19.8683 27.1339 19.6339C27.3683 19.3995 27.5 19.0815 27.5 18.75V6.25C27.5 5.91848 27.3683 5.60054 27.1339 5.36612C26.8995 5.1317 26.5815 5 26.25 5V5ZM11.5625 9.02344C11.5625 9.11668 11.5255 9.2061 11.4595 9.27203C11.3936 9.33796 11.3042 9.375 11.2109 9.375H10.0391C9.94582 9.375 9.8564 9.33796 9.79047 9.27203C9.72454 9.2061 9.6875 9.11668 9.6875 9.02344V7.85156C9.6875 7.75832 9.72454 7.6689 9.79047 7.60297C9.8564 7.53704 9.94582 7.5 10.0391 7.5H11.2109C11.3042 7.5 11.3936 7.53704 11.4595 7.60297C11.5255 7.6689 11.5625 7.75832 11.5625 7.85156V9.02344ZM25.3125 17.1484C25.3125 17.2417 25.2755 17.3311 25.2095 17.397C25.1436 17.463 25.0542 17.5 24.9609 17.5H23.7891C23.6958 17.5 23.6064 17.463 23.5405 17.397C23.4745 17.3311 23.4375 17.2417 23.4375 17.1484V15.9766C23.4375 15.8833 23.4745 15.7939 23.5405 15.728C23.6064 15.662 23.6958 15.625 23.7891 15.625H24.9609C25.0542 15.625 25.1436 15.662 25.2095 15.728C25.2755 15.7939 25.3125 15.8833 25.3125 15.9766V17.1484ZM25.3125 13.0859C25.3125 13.1792 25.2755 13.2686 25.2095 13.3345C25.1436 13.4005 25.0542 13.4375 24.9609 13.4375H23.7891C23.6958 13.4375 23.6064 13.4005 23.5405 13.3345C23.4745 13.2686 23.4375 13.1792 23.4375 13.0859V11.9141C23.4375 11.8208 23.4745 11.7314 23.5405 11.6655C23.6064 11.5995 23.6958 11.5625 23.7891 11.5625H24.9609C25.0542 11.5625 25.1436 11.5995 25.2095 11.6655C25.2755 11.7314 25.3125 11.8208 25.3125 11.9141V13.0859ZM25.3125 9.02344C25.3125 9.11668 25.2755 9.2061 25.2095 9.27203C25.1436 9.33796 25.0542 9.375 24.9609 9.375H23.7891C23.6958 9.375 23.6064 9.33796 23.5405 9.27203C23.4745 9.2061 23.4375 9.11668 23.4375 9.02344V7.85156C23.4375 7.75832 23.4745 7.6689 23.5405 7.60297C23.6064 7.53704 23.6958 7.5 23.7891 7.5H24.9609C25.0542 7.5 25.1436 7.53704 25.2095 7.60297C25.2755 7.6689 25.3125 7.75832 25.3125 7.85156V9.02344ZM18.75 11.25H3.75C3.41848 11.25 3.10054 11.3817 2.86612 11.6161C2.6317 11.8505 2.5 12.1685 2.5 12.5L2.5 23.75C2.5 24.0815 2.6317 24.3995 2.86612 24.6339C3.10054 24.8683 3.41848 25 3.75 25H18.75C19.0815 25 19.3995 24.8683 19.6339 24.6339C19.8683 24.3995 20 24.0815 20 23.75V12.5C20 12.1685 19.8683 11.8505 19.6339 11.6161C19.3995 11.3817 19.0815 11.25 18.75 11.25ZM6.25 13.75C6.49723 13.75 6.7389 13.8233 6.94446 13.9607C7.15002 14.098 7.31024 14.2932 7.40485 14.5216C7.49946 14.7501 7.52421 15.0014 7.47598 15.2439C7.42775 15.4863 7.3087 15.7091 7.13388 15.8839C6.95907 16.0587 6.73634 16.1778 6.49386 16.226C6.25139 16.2742 6.00005 16.2495 5.77165 16.1549C5.54324 16.0602 5.34801 15.9 5.21066 15.6945C5.07331 15.4889 5 15.2472 5 15C5 14.6685 5.1317 14.3505 5.36612 14.1161C5.60054 13.8817 5.91848 13.75 6.25 13.75ZM17.5 22.5H5V21.25L7.5 18.75L8.75 20L13.75 15L17.5 18.75V22.5Z" fill="white"/>
</svg>
