<svg width="20" height="20" viewBox="0 0 20 20" fill="none" xmlns="http://www.w3.org/2000/svg">
<path fill-rule="evenodd" clip-rule="evenodd" d="M3.96 19.9331H0V0H20V12.2197L12.28 19.9331H6.2V4.70925H10.96H11H11.04C11.88 4.70925 12.68 4.99343 13.32 5.52119C14.52 6.49552 15 8.24119 14.48 9.66209C13.92 11.286 12.4 12.1385 10.92 12.1385H7.84L10.08 14.3713H11C13.24 14.3713 15.36 12.991 16.28 10.9612C17.36 8.64716 16.8 5.76478 15 4.0191C13.92 3.00418 12.48 2.39522 11 2.39522C10.96 2.39522 10.96 2.39522 10.92 2.39522H5.88H1.8L3.96 4.54687V19.9331Z" fill="black"/>
<path fill-rule="evenodd" clip-rule="evenodd" d="M18.44 19.9332C18 19.9332 17.64 19.7708 17.36 19.4866C17.04 19.2024 16.92 18.7965 16.92 18.3499C16.92 17.8627 17.08 17.4973 17.36 17.2132C17.64 16.929 18.04 16.7666 18.48 16.7666C18.92 16.7666 19.28 16.929 19.6 17.2132C19.84 17.4568 20 17.8627 20 18.3093C20 18.7559 19.84 19.1618 19.56 19.446C19.24 19.7708 18.84 19.9332 18.44 19.9332Z" fill="black"/>
</svg>
