<svg width="42" height="41" viewBox="0 0 42 41" fill="none" xmlns="http://www.w3.org/2000/svg">
<rect x="7.46484" y="5.85706" width="29.2853" height="29.2853" fill="white"/>
<path d="M38.8876 2.25533C37.3845 0.751869 35.5736 0 33.4561 0H7.831C5.71357 0 3.90262 0.751869 2.39888 2.25533C0.895423 3.75906 0.143555 5.56992 0.143555 7.68744V33.3123C0.143555 35.4296 0.895423 37.2407 2.39888 38.7444C3.90262 40.2482 5.71357 41 7.831 41H33.4559C35.5733 41 37.3842 40.2482 38.8873 38.7444C40.3911 37.2407 41.1429 35.4297 41.1429 33.3123V7.68744C41.1428 5.56992 40.391 3.75878 38.8876 2.25533ZM31.5074 15.7755C31.5252 15.9357 31.5343 16.1755 31.5343 16.4963C31.5343 17.9912 31.3161 19.4904 30.8803 20.9937C30.4446 22.4977 29.7771 23.9391 28.8781 25.3181C27.98 26.697 26.9078 27.9164 25.6623 28.9751C24.4165 30.0334 22.9219 30.8791 21.1776 31.5103C19.4342 32.1425 17.5654 32.4586 15.5725 32.4586C12.4764 32.4586 9.61138 31.6217 6.97759 29.9497C7.40467 30.0028 7.84979 30.0296 8.3122 30.0296C10.8926 30.0296 13.2149 29.2288 15.2792 27.6268C14.0693 27.6095 12.9881 27.2361 12.0361 26.5058C11.0839 25.7762 10.4212 24.851 10.0474 23.7299C10.5099 23.8009 10.8569 23.8362 11.0882 23.8362C11.4796 23.8362 11.9335 23.7651 12.4494 23.6231C11.1505 23.3736 10.0562 22.7291 9.16645 21.6881C8.27649 20.6469 7.83165 19.4592 7.83165 18.1247V18.0713C8.77452 18.5159 9.6643 18.7472 10.5008 18.7652C8.88139 17.6795 8.07174 16.1226 8.07174 14.094C8.07174 13.0974 8.32959 12.1543 8.84567 11.2646C10.2513 12.9908 11.96 14.3697 13.9706 15.4018C15.9813 16.4338 18.1347 17.0124 20.4302 17.1368C20.3414 16.7988 20.2968 16.3715 20.2968 15.8556C20.2968 14.3072 20.844 12.9861 21.9385 11.8916C23.0326 10.7972 24.3541 10.2498 25.902 10.2498C27.5395 10.2498 28.9012 10.8372 29.9865 12.0118C31.2145 11.7805 32.4072 11.3265 33.5636 10.6505C33.1188 12.0204 32.2908 13.0615 31.0813 13.7734C32.2377 13.6129 33.3139 13.3106 34.3103 12.8657C33.563 14.0046 32.6285 14.9744 31.5074 15.7755Z" fill="#638DBE"/>
</svg>
