<svg width="481" height="65" viewBox="0 0 481 65" fill="none" xmlns="http://www.w3.org/2000/svg">
<path d="M83.3 26.2H73.6V44H83.3C86.9 44 89.7 43.2 91.6 41.7C93.5 40.1 94.4 37.9 94.4 35.1C94.4 32.3 93.5 30 91.6 28.5C89.7 26.9 86.9 26.2 83.3 26.2ZM309.6 57.3C312.6 57.3 315.3 56.6 317.7 55.3C320.1 54 322 52.1 323.3 49.7C324.7 47.3 325.3 44.6 325.3 41.6C325.3 38.6 324.6 35.9 323.3 33.5C321.9 31.1 320.1 29.2 317.7 27.9C315.3 26.6 312.6 25.9 309.6 25.9C306.6 25.9 303.9 26.6 301.5 27.9C299.1 29.2 297.2 31.1 295.9 33.5C294.5 35.9 293.9 38.6 293.9 41.6C293.9 44.6 294.6 47.3 295.9 49.7C297.3 52.1 299.1 54 301.5 55.3C304 56.6 306.7 57.3 309.6 57.3ZM456.5 57.3C459.5 57.3 462.2 56.6 464.6 55.3C467 54 468.9 52.1 470.2 49.7C471.6 47.3 472.2 44.6 472.2 41.6C472.2 38.6 471.5 35.9 470.2 33.5C468.8 31.1 467 29.2 464.6 27.9C462.2 26.6 459.5 25.9 456.5 25.9C453.5 25.9 450.8 26.6 448.4 27.9C446 29.2 444.1 31.1 442.8 33.5C441.4 35.9 440.8 38.6 440.8 41.6C440.8 44.6 441.5 47.3 442.8 49.7C444.2 52.1 446 54 448.4 55.3C450.8 56.6 453.5 57.3 456.5 57.3ZM178.3 63.9H170.1L150.5 19.1H159.5L174.4 53.7L189.4 19.1H197.7L178.3 63.9ZM352.1 63.9H343.8V19.1H350.6L375.3 49.4V19.1H383.6V63.9H376.8L352.1 33.6V63.9ZM146 26.1H121.6V37.6H143.2V44.4H121.6V56.9H146.9V63.9H113.3V19.1H146V26.1ZM212.1 63.9H203.8V21.7L212.1 19.2V19.1V63.9ZM275.3 63.9H267V21.7L275.3 19.2V63.9ZM73.6 63.9H65.3V19.1H83.7C87.6 19.1 91 19.7 93.8 21C96.7 22.3 98.9 24.1 100.4 26.5C101.9 28.9 102.7 31.7 102.7 35C102.7 38.4 101.9 41.3 100.2 43.7C98.6 46.1 96.2 47.9 93.1 49.1L103.4 63.8H94.4L85.2 50.7C84.8 50.7 84.2 50.8 83.5 50.8H73.6V63.9ZM422.2 63.9H413.9V21.7L422.2 19.2V19.1V63.9ZM456.5 64.6C451.9 64.6 447.8 63.6 444.1 61.6C440.4 59.6 437.6 56.9 435.5 53.3C433.4 49.8 432.4 45.8 432.4 41.5C432.4 37.1 433.4 33.2 435.5 29.7C437.6 26.2 440.5 23.4 444.1 21.4C447.7 19.4 451.9 18.4 456.5 18.4C461.1 18.4 465.2 19.4 468.8 21.4C472.4 23.4 475.3 26.1 477.4 29.6C479.5 33.1 480.5 37 480.5 41.4C480.5 45.8 479.5 49.7 477.4 53.2C475.3 56.7 472.4 59.4 468.8 61.4C465.2 63.6 461.1 64.6 456.5 64.6ZM309.6 64.6C305 64.6 300.9 63.6 297.2 61.6C293.5 59.6 290.7 56.9 288.6 53.3C286.5 49.8 285.5 45.8 285.5 41.5C285.5 37.1 286.5 33.2 288.6 29.7C290.7 26.2 293.6 23.4 297.2 21.4C300.8 19.4 305 18.4 309.6 18.4C314.2 18.4 318.3 19.4 322 21.4C325.7 23.4 328.5 26.1 330.6 29.6C332.7 33.1 333.7 37 333.7 41.4C333.7 45.8 332.7 49.7 330.6 53.2C328.5 56.7 325.6 59.4 322 61.4C318.3 63.6 314.2 64.6 309.6 64.6ZM253.6 25.8L249.3 27.1C248.5 26.8 247.7 26.5 246.9 26.3C244.8 25.7 242.7 25.4 240.7 25.4C237.4 25.4 235 26 233.4 27.1C231.8 28.2 231 29.7 231 31.5C231 32.8 231.5 33.8 232.4 34.6C233.3 35.4 234.5 36.1 235.9 36.5C237.3 37 239.2 37.5 241.7 38.1C245 38.9 247.8 39.7 249.9 40.5C252 41.3 253.9 42.6 255.4 44.3C256.9 46 257.7 48.3 257.7 51.2C257.7 53.7 257 55.9 255.7 57.9C254.4 59.9 252.3 61.5 249.6 62.7C246.9 63.9 243.5 64.5 239.6 64.5C236.1 64.5 232.8 64 229.6 63C226.4 62 223.8 60.7 222 59.1L224.9 52.6C226.7 54.1 229 55.2 231.7 56.2C234.4 57.1 237 57.6 239.7 57.6C243 57.6 245.5 57.1 247.2 56C248.8 54.9 249.7 53.5 249.7 51.8C249.7 50.5 249.2 49.5 248.3 48.6C247.4 47.7 246.2 47.1 244.8 46.6C243.4 46.1 241.5 45.6 239 45C235.6 44.2 232.8 43.4 230.7 42.6C228.6 41.8 226.8 40.5 225.3 38.8C223.8 37.1 223 34.7 223 31.8C223 29.3 223.7 27.1 225 25C226.3 23 228.4 21.4 231.1 20.2C233.8 19 237.1 18.4 241.1 18.4C243.8 18.4 246.5 18.7 249.2 19.4C251.8 20.1 254.1 21.1 256 22.3C256 22.3 257.1 23 258.6 24.2L254.8 25.4L254.4 25.5L253.6 25.8ZM16.4 64.6H8.1V8L0 0H15.2H34.2C34.3 0 34.4 0 34.5 0C40 0 45.5 2.2 49.5 5.9C56.2 12.2 58.4 22.9 54.3 31.4C50.7 38.9 42.8 44 34.4 44C34.3 44 34.2 44 34.1 44H30.8L22.5 35.8H34C39.5 35.8 45.2 32.6 47.3 26.6C49.2 21.3 47.4 14.9 42.9 11.3C40.5 9.4 37.5 8.3 34.4 8.3C34.3 8.3 34.3 8.3 34.2 8.3H34.1H16.4V64.6Z" fill="#2B3C6E"/>
</svg>
